<?xml version="1.0" standalone="no"?>
<!DOCTYPE svg PUBLIC "-//W3C//DTD SVG 20010904//EN"
 "http://www.w3.org/TR/2001/REC-SVG-20010904/DTD/svg10.dtd">
<svg version="1.0" xmlns="http://www.w3.org/2000/svg"
 width="300.000000pt" height="275.000000pt" viewBox="0 0 300.000000 275.000000"
 preserveAspectRatio="xMidYMid meet">
<metadata>
Created by potrace 1.10, written by Peter Selinger 2001-2011
</metadata>
<g transform="translate(0.000000,275.000000) scale(0.100000,-0.100000)"
fill="#000000" stroke="none">
<path d="M40 2710 c-11 -11 -22 -30 -25 -42 -3 -13 -4 -605 -3 -1316 l3 -1294
28 -24 28 -24 1429 0 1429 0 28 24 28 24 3 1305 2 1305 -26 31 -26 31 -1439 0
c-1419 0 -1439 0 -1459 -20z m2903 -1337 l-3 -1318 -1445 -3 -1445 -2 0 1320
0 1320 1448 0 1447 0 -2 -1317z"/>
<path d="M1745 2492 c-33 -31 -107 -100 -165 -152 -200 -182 -235 -214 -241
-222 -3 -5 -85 30 -182 78 -98 48 -180 84 -183 81 -17 -16 17 -38 165 -107 88
-41 159 -78 158 -82 -3 -10 -578 -531 -582 -527 -1 2 -69 146 -150 319 -81
173 -150 318 -154 322 -3 4 -12 4 -18 0 -9 -6 -3 -27 23 -81 52 -108 274 -581
274 -585 0 -3 -311 -288 -430 -393 -27 -24 -32 -34 -23 -44 9 -9 51 25 185
146 95 87 198 182 228 211 l55 53 125 -267 c68 -147 150 -320 181 -385 34 -73
52 -120 45 -122 -387 -127 -446 -148 -446 -166 0 -16 29 -9 232 61 127 44 235
77 238 73 4 -5 42 -84 85 -178 44 -93 81 -173 85 -177 3 -4 11 -4 18 1 9 5
-10 55 -74 190 -47 100 -84 183 -82 184 14 8 638 212 638 209 0 -5 -201 -703
-207 -719 -3 -8 3 -13 13 -13 16 0 35 55 125 373 l106 372 344 117 c189 64
347 118 351 120 4 2 4 9 -1 16 -6 11 -80 -11 -345 -101 -251 -85 -336 -110
-333 -98 20 71 211 737 213 739 1 3 266 -125 553 -266 101 -50 188 -89 193
-86 20 12 3 27 -74 63 -46 21 -208 100 -361 175 -152 75 -282 136 -287 136 -6
0 -10 6 -10 13 0 9 128 461 156 550 4 12 0 17 -13 17 -15 0 -31 -46 -96 -278
l-79 -278 -271 134 c-150 73 -293 143 -319 154 -27 11 -48 22 -48 25 0 2 17
18 37 36 38 33 384 346 416 377 15 13 16 19 5 28 -10 8 -27 -3 -73 -46z m-166
-538 c130 -63 276 -134 324 -156 48 -23 86 -46 84 -52 -2 -6 -53 -182 -113
-392 l-109 -380 -334 -112 c-184 -62 -335 -111 -336 -109 -2 1 -69 144 -150
317 -81 173 -163 346 -182 384 -27 57 -31 72 -21 82 59 59 585 533 592 533 5
1 115 -51 245 -115z"/>
</g>
</svg>
